<svg width="24" height="25" viewBox="0 0 24 25" fill="none" xmlns="http://www.w3.org/2000/svg">
<path d="M18.9993 4.67531C19.1945 4.48019 19.5111 4.48024 19.7063 4.67531L20.1136 5.08254C20.3085 5.27774 20.3085 5.59436 20.1136 5.78957L13.2542 12.648L20.1136 19.5064C20.3086 19.7015 20.3084 20.0181 20.1136 20.2134L19.7063 20.6206C19.5111 20.816 19.1946 20.8159 18.9993 20.6206L12.1399 13.7612L5.28153 20.6206C5.08625 20.8159 4.76974 20.8159 4.5745 20.6206L4.16727 20.2134C3.97237 20.0181 3.97213 19.7015 4.16727 19.5064L11.0257 12.648L4.16727 5.78957C3.97227 5.59435 3.97221 5.27775 4.16727 5.08254L4.5745 4.67531C4.76975 4.48029 5.08632 4.48015 5.28153 4.67531L12.1399 11.5337L18.9993 4.67531Z" fill="#A9ABB7"/>
</svg>
