<svg width="96" height="52" viewBox="0 0 96 52" fill="none" xmlns="http://www.w3.org/2000/svg">
<path fill-rule="evenodd" clip-rule="evenodd" d="M21.2113 0H7.78868C3.4869 0 0 3.10971 0 6.94585V24.0481C0 27.8842 3.4869 30.9942 7.78868 30.9942H12.1118C12.1118 30.9942 13.1651 31.1483 13.2206 29.8644C13.1996 27.7503 13.1449 25.7648 13.0038 25.3414C12.6587 23.1781 11.2776 24.3045 11.2776 19.8108C11.2776 15.3172 12.3133 6.91309 13.9245 3.22622C14.9702 0.832977 15.881 1.38279 15.7657 3.3416C15.7657 3.3416 15.881 13.2504 15.9959 19.4724C16.0736 23.6726 16.0335 27.5353 16.0599 29.9097C16.0503 31.1025 17.1036 30.9942 17.1036 30.9942H21.2113C25.5128 30.9942 29 27.8842 29 24.0481V6.94585C29 3.10971 25.5128 0 21.2113 0Z" fill="#56CA5A"/>
<path fill-rule="evenodd" clip-rule="evenodd" d="M55.2112 0H41.7888C37.4871 0 34 3.41036 34 7.61739V26.3734C34 30.5795 37.4871 33.9902 41.7888 33.9902H45.2725C45.2725 33.9902 46.3685 34.1136 46.3685 32.8995C46.599 29.9428 46.8536 26.4725 46.8536 25.5608C46.8536 23.895 45.7767 23.6798 44.4551 23.1961C43.1335 22.7125 41.3222 18.6276 42.3991 12.7154C43.4709 6.83134 45.9969 3.39911 48.4819 3.36662V3.3635C48.4879 3.3635 48.4939 3.36506 48.4999 3.36506C48.5055 3.36506 48.5115 3.3635 48.5175 3.3635V3.36662C51.0025 3.39911 53.5288 6.83134 54.6006 12.7154C55.6775 18.6276 53.8662 22.7125 52.5446 23.1961C51.2233 23.6798 50.1461 23.895 50.1461 25.5608C50.1461 26.4572 50.3919 30.1268 50.6193 33.0495C50.7049 34.1639 51.6256 33.9902 51.6256 33.9902H55.2112C59.5129 33.9902 63 30.5795 63 26.3734V7.61739C63 3.41036 59.5129 0 55.2112 0Z" fill="#4CAF50"/>
<path fill-rule="evenodd" clip-rule="evenodd" d="M88.2116 0H74.789C70.4872 0 67 3.10966 67 6.94575V24.048C67 27.8835 70.4872 30.9935 74.789 30.9935H78.1544C78.1544 30.9935 79.2527 31.0385 79.3241 30.0372C79.5574 27.3147 79.8197 24.0631 79.8197 23.2191C79.8197 21.7004 78.7428 21.5036 77.4209 21.0631C76.0992 20.6219 74.6991 18.2945 75.6397 11.5063C75.978 9.06462 76.3513 6.30023 77.288 4.86988C77.4846 4.56934 77.8283 4.32094 78.2642 4.12181V14.2402C78.2642 14.8558 78.7456 15.3546 79.3389 15.3546C79.9321 15.3546 80.4135 14.8558 80.4135 14.2402L80.6884 3.59366C81.3001 3.53013 81.3903 3.51988 82.0069 3.56175L82.2817 14.2402C82.2817 14.8558 82.7629 15.3546 83.3564 15.3546C83.9496 15.3546 84.4308 14.8558 84.4308 14.2402V3.98536C84.9515 4.18306 85.3601 4.44543 85.5806 4.77388C86.5454 6.2122 86.9013 9.01648 87.292 11.5063C88.3991 18.5634 86.8328 20.6219 85.5109 21.0631C84.1892 21.5036 83.112 21.7004 83.112 23.2191C83.112 24.0483 83.4167 27.3713 83.6466 30.0631C83.8464 31.1382 84.6951 30.9935 84.6951 30.9935H88.2116C92.5128 30.9935 96 27.8835 96 24.048V6.94575C96 3.10966 92.5128 0 88.2116 0Z" fill="#56CA5A"/>
<path fill-rule="evenodd" clip-rule="evenodd" d="M64.885 50.006C64.131 50.968 62.753 51.514 61.349 51.514C58.125 51.514 55.915 49.226 55.915 45.95C55.915 42.83 58.151 40.412 61.323 40.412C62.675 40.412 64.027 40.802 64.885 41.894V36.46H63.065V34.458H67.225V51.202H64.989L64.885 50.006ZM23.1655 45.066V51.202H20.7995V38.618H19.2395V36.616H30.0555V40.36H27.9495V38.618H23.1655V43.116H28.2875V45.066H23.1655ZM41.5707 45.95C41.5707 48.966 39.1267 51.54 35.7987 51.54C32.4967 51.54 30.0527 48.966 30.0527 45.95C30.0527 42.934 32.4967 40.412 35.7987 40.412C39.1267 40.412 41.5707 42.934 41.5707 45.95ZM35.7987 49.382C33.8487 49.382 32.3927 48.03 32.3927 45.95C32.3927 43.766 33.9787 42.544 35.7987 42.544C37.6187 42.544 39.2047 43.766 39.2047 45.95C39.2047 48.03 37.6447 49.382 35.7987 49.382ZM54.5019 45.95C54.5019 48.966 52.0579 51.54 48.7299 51.54C45.4279 51.54 42.9839 48.966 42.9839 45.95C42.9839 42.934 45.4279 40.412 48.7299 40.412C52.0579 40.412 54.5019 42.934 54.5019 45.95ZM48.7299 49.382C46.7799 49.382 45.3239 48.03 45.3239 45.95C45.3239 43.766 46.9099 42.544 48.7299 42.544C50.5499 42.544 52.1359 43.766 52.1359 45.95C52.1359 48.03 50.5759 49.382 48.7299 49.382ZM61.609 49.434C59.685 49.434 58.255 48.03 58.255 45.924C58.255 43.844 59.633 42.492 61.609 42.492C63.897 42.492 64.989 44.104 64.989 45.95C64.989 47.692 63.897 49.434 61.609 49.434ZM73.1622 37.162C73.1622 38.046 72.5382 38.722 71.6022 38.722C70.7182 38.722 70.0682 37.994 70.0682 37.162C70.0682 36.226 70.6662 35.628 71.6022 35.628C72.5122 35.628 73.1622 36.408 73.1622 37.162ZM72.9802 40.698H68.8462V42.7H70.6402V51.202H72.9802V40.698ZM82.3494 51.02C81.8034 51.332 80.9454 51.514 80.0874 51.514C77.8254 51.514 76.7854 50.37 76.7854 47.9V42.7H74.6014V40.698H76.7854V37.136H79.1254V40.698H82.0634V42.7H79.1254V47.484C79.1254 48.862 79.5674 49.382 80.5034 49.382C80.9974 49.382 81.5694 49.226 81.8814 49.018C81.9959 49.4269 82.0898 49.8563 82.1825 50.2805C82.2372 50.5306 82.2915 50.7789 82.3494 51.02Z" fill="#2C9631"/>
</svg>
