<svg width="64" height="18" viewBox="0 0 64 18" fill="none" xmlns="http://www.w3.org/2000/svg">
<path fill-rule="evenodd" clip-rule="evenodd" d="M45.885 16.006C45.131 16.968 43.753 17.514 42.349 17.514C39.125 17.514 36.915 15.226 36.915 11.95C36.915 8.83001 39.151 6.41201 42.323 6.41201C43.675 6.41201 45.027 6.80201 45.885 7.89401V2.46001H44.065V0.458008H48.225V17.202H45.989L45.885 16.006ZM4.1655 11.066V17.202H1.7995V4.61801H0.239502V2.61601H11.0555V6.36001H8.9495V4.61801H4.1655V9.11601H9.2875V11.066H4.1655ZM22.5707 11.95C22.5707 14.966 20.1267 17.54 16.7987 17.54C13.4967 17.54 11.0527 14.966 11.0527 11.95C11.0527 8.93401 13.4967 6.41201 16.7987 6.41201C20.1267 6.41201 22.5707 8.93401 22.5707 11.95ZM16.7987 15.382C14.8487 15.382 13.3927 14.03 13.3927 11.95C13.3927 9.76601 14.9787 8.54401 16.7987 8.54401C18.6187 8.54401 20.2047 9.76601 20.2047 11.95C20.2047 14.03 18.6447 15.382 16.7987 15.382ZM35.5019 11.95C35.5019 14.966 33.0579 17.54 29.7299 17.54C26.4279 17.54 23.9839 14.966 23.9839 11.95C23.9839 8.93401 26.4279 6.41201 29.7299 6.41201C33.0579 6.41201 35.5019 8.93401 35.5019 11.95ZM29.7299 15.382C27.7799 15.382 26.3239 14.03 26.3239 11.95C26.3239 9.76601 27.9099 8.54401 29.7299 8.54401C31.5499 8.54401 33.1359 9.76601 33.1359 11.95C33.1359 14.03 31.5759 15.382 29.7299 15.382ZM42.609 15.434C40.685 15.434 39.255 14.03 39.255 11.924C39.255 9.84401 40.633 8.49201 42.609 8.49201C44.897 8.49201 45.989 10.104 45.989 11.95C45.989 13.692 44.897 15.434 42.609 15.434ZM54.1622 3.16201C54.1622 4.04601 53.5382 4.72201 52.6022 4.72201C51.7182 4.72201 51.0682 3.99401 51.0682 3.16201C51.0682 2.22601 51.6662 1.62801 52.6022 1.62801C53.5122 1.62801 54.1622 2.40801 54.1622 3.16201ZM53.9802 6.69801H49.8462V8.70001H51.6402V17.202H53.9802V6.69801ZM63.3494 17.02C62.8034 17.332 61.9454 17.514 61.0874 17.514C58.8254 17.514 57.7854 16.37 57.7854 13.9V8.70001H55.6014V6.69801H57.7854V3.13601H60.1254V6.69801H63.0634V8.70001H60.1254V13.484C60.1254 14.862 60.5674 15.382 61.5034 15.382C61.9974 15.382 62.5694 15.226 62.8814 15.018C62.9959 15.4269 63.0898 15.8563 63.1825 16.2805C63.2372 16.5306 63.2915 16.7789 63.3494 17.02Z" fill="white"/>
</svg>
